<svg width="15" height="22" viewBox="0 0 15 22" fill="none" xmlns="http://www.w3.org/2000/svg">
<path d="M13.3829 11.3671C12.6877 10.8473 11.6444 10.4321 10.253 10.1218L9.18555 9.88298V5.5609L9.3301 5.61681C10.2361 6.05177 10.7229 6.87494 10.7896 7.79161H14.4232C14.357 5.95827 13.6425 4.60252 12.2796 3.64461C11.3741 3.00798 10.3415 2.59869 9.18555 2.39244V-6.10352e-05H5.8014V2.31911C4.23647 2.50244 2.99546 2.98002 2.08415 3.75644C0.890998 4.77302 0.294905 6.04902 0.294905 7.58536C0.294905 9.26881 0.904535 10.5063 2.1238 11.2979C2.80643 11.7466 4.03681 12.1632 5.8014 12.5491V17.2314C5.15793 17.0632 4.65369 16.7864 4.29835 16.3863C3.95559 15.9976 3.72595 15.5833 3.60895 14.6666H0C0 16.4999 0.682148 17.8154 2.04693 18.8356C3.0322 19.5717 4.28627 20.019 5.8014 20.2129V21.9999H9.18555V20.2431C10.7969 20.0603 12.0979 19.5726 13.0831 18.7746C14.3609 17.7388 15 16.4371 15 14.8701C15 13.3416 14.461 12.1742 13.3829 11.3671ZM4.67399 8.70094C4.0866 8.39844 3.79315 7.93919 3.79315 7.32594C3.79315 6.65861 4.09095 6.13565 4.68656 5.76348C5.00081 5.56686 5.375 5.42386 5.8014 5.32944V9.09877C5.27686 8.95394 4.89831 8.82102 4.67399 8.70094ZM9.73813 17.1375C9.55711 17.1948 9.37257 17.2416 9.18555 17.2777V13.2916C9.76811 13.4552 10.2279 13.6335 10.5624 13.8251C11.0903 14.1354 11.3548 14.5768 11.3548 15.1428C11.3543 16.1126 10.8153 16.7804 9.73813 17.1375Z" fill="#41FF98"/>
</svg>
