<svg width="18" height="22" viewBox="0 0 18 22" fill="none" xmlns="http://www.w3.org/2000/svg">
<path fill-rule="evenodd" clip-rule="evenodd" d="M9 -6.10174e-05C8.71334 -9.92423e-05 8.43001 0.0614876 8.16923 0.180526C7.90845 0.299564 7.6763 0.473272 7.48853 0.689876C7.30076 0.906481 7.16174 1.16092 7.0809 1.43595C7.00006 1.71098 6.97929 2.00018 7.02 2.28394C5.57063 2.71186 4.29857 3.59716 3.39379 4.80761C2.48902 6.01806 2.00008 7.48871 2 8.99994V16.9999H1C0.734784 16.9999 0.48043 17.1053 0.292893 17.2928C0.105357 17.4804 0 17.7347 0 17.9999C0 18.2652 0.105357 18.5195 0.292893 18.707C0.48043 18.8946 0.734784 18.9999 1 18.9999H17C17.2652 18.9999 17.5196 18.8946 17.7071 18.707C17.8946 18.5195 18 18.2652 18 17.9999C18 17.7347 17.8946 17.4804 17.7071 17.2928C17.5196 17.1053 17.2652 16.9999 17 16.9999H16V8.99994C15.9999 7.48871 15.511 6.01806 14.6062 4.80761C13.7014 3.59716 12.4294 2.71186 10.98 2.28394C11.0207 2.00018 10.9999 1.71098 10.9191 1.43595C10.8383 1.16092 10.6992 0.906481 10.5115 0.689876C10.3237 0.473272 10.0916 0.299564 9.83077 0.180526C9.56999 0.0614876 9.28666 -9.92423e-05 9 -6.10174e-05ZM11 20.9999C11 21.2652 10.8946 21.5195 10.7071 21.707C10.5196 21.8946 10.2652 21.9999 10 21.9999H8C7.73478 21.9999 7.48043 21.8946 7.29289 21.707C7.10536 21.5195 7 21.2652 7 20.9999C7 20.7347 7.10536 20.4804 7.29289 20.2928C7.48043 20.1053 7.73478 19.9999 8 19.9999H10C10.2652 19.9999 10.5196 20.1053 10.7071 20.2928C10.8946 20.4804 11 20.7347 11 20.9999Z" fill="#FFCA41"/>
</svg>
