<svg width="20" height="20" viewBox="0 0 20 20" fill="none" xmlns="http://www.w3.org/2000/svg">
<path d="M6.31549 1.45439C7.25104 0.516454 8.55773 -6.10352e-05 10 -6.10352e-05C11.45 -6.10352e-05 12.761 0.513329 13.6922 1.44547C14.6335 2.38787 15.0922 3.66867 14.9845 5.0517C14.771 7.78025 12.535 9.99988 10 9.99988C7.46497 9.99988 5.23282 7.7807 5.016 5.05259C4.90687 3.68206 5.3684 2.40394 6.31549 1.45439ZM1.53869 19.9998H18.4613C18.6828 20.0025 18.9022 19.9593 19.1034 19.8733C19.3047 19.7874 19.4828 19.6609 19.6247 19.503C19.9372 19.1561 20.0632 18.6824 19.9699 18.2034C19.5642 16.1132 18.2978 14.3574 16.3075 13.1249C14.5393 12.0307 12.2995 11.4284 10 11.4284C7.70054 11.4284 5.4607 12.0311 3.69248 13.1249C1.70215 14.357 0.435841 16.1128 0.0300827 18.203C-0.0631847 18.682 0.0627728 19.1556 0.375265 19.5025C0.517187 19.6605 0.695257 19.7871 0.896515 19.8731C1.09777 19.9592 1.31715 20.0024 1.53869 19.9998Z" fill="#418DFF"/>
</svg>
